<svg width="22" height="22" viewBox="0 0 22 22" fill="none" xmlns="http://www.w3.org/2000/svg">
<path d="M4.00081 5.41408L0.757812 2.17208L2.17281 0.75708L5.41481 4.00008H20.6568C20.8127 4.00007 20.9664 4.03649 21.1057 4.10645C21.245 4.1764 21.366 4.27794 21.459 4.40298C21.5521 4.52801 21.6147 4.67306 21.6417 4.82657C21.6688 4.98007 21.6595 5.13777 21.6148 5.28708L19.2148 13.2871C19.1531 13.4932 19.0265 13.6738 18.8539 13.8023C18.6813 13.9307 18.4719 14.0001 18.2568 14.0001H6.00081V16.0001H17.0008V18.0001H5.00081C4.7356 18.0001 4.48124 17.8947 4.29371 17.7072C4.10617 17.5197 4.00081 17.2653 4.00081 17.0001V5.41408ZM6.00081 6.00008V12.0001H17.5128L19.3128 6.00008H6.00081ZM5.50081 22.0001C5.10299 22.0001 4.72146 21.842 4.44015 21.5607C4.15885 21.2794 4.00081 20.8979 4.00081 20.5001C4.00081 20.1023 4.15885 19.7207 4.44015 19.4394C4.72146 19.1581 5.10299 19.0001 5.50081 19.0001C5.89864 19.0001 6.28017 19.1581 6.56147 19.4394C6.84278 19.7207 7.00081 20.1023 7.00081 20.5001C7.00081 20.8979 6.84278 21.2794 6.56147 21.5607C6.28017 21.842 5.89864 22.0001 5.50081 22.0001ZM17.5008 22.0001C17.103 22.0001 16.7215 21.842 16.4402 21.5607C16.1588 21.2794 16.0008 20.8979 16.0008 20.5001C16.0008 20.1023 16.1588 19.7207 16.4402 19.4394C16.7215 19.1581 17.103 19.0001 17.5008 19.0001C17.8986 19.0001 18.2802 19.1581 18.5615 19.4394C18.8428 19.7207 19.0008 20.1023 19.0008 20.5001C19.0008 20.8979 18.8428 21.2794 18.5615 21.5607C18.2802 21.842 17.8986 22.0001 17.5008 22.0001Z" fill="#595959"/>
</svg>
